<?xml version="1.0" encoding="UTF-8" standalone="no"?>
<!DOCTYPE svg PUBLIC "-//W3C//DTD SVG 1.1//EN" "http://www.w3.org/Graphics/SVG/1.1/DTD/svg11.dtd">
<svg width="100%" height="100%" viewBox="0 0 166 166" version="1.1" xmlns="http://www.w3.org/2000/svg" xmlns:xlink="http://www.w3.org/1999/xlink" xml:space="preserve" xmlns:serif="http://www.serif.com/" style="fill-rule:evenodd;clip-rule:evenodd;stroke-linejoin:round;stroke-miterlimit:2;">
    <g transform="matrix(4.16667,0,0,4.16667,-1039.27,-3.72086)">
        <rect x="249.425" y="0.893" width="39.792" height="39.748" style="fill:white;"/>
    </g>
    <g transform="matrix(4.16667,0,0,4.16667,-1039.27,-3.72086)">
        <path d="M284.624,10.654L284.624,7.783L286.655,7.783L286.655,15.468L284.579,15.468L284.579,12.465L282.284,12.465L282.284,15.512L280.208,15.512L280.208,7.783L282.239,7.783L282.239,10.654L284.624,10.654Z" style="fill:rgb(236,31,39);"/>
    </g>
    <g transform="matrix(4.16667,0,0,4.16667,-1039.27,-3.72086)">
        <path d="M277.911,10.345L279.545,9.285C279.104,8.578 278.352,8.004 277.602,7.783C276.233,7.342 274.776,7.783 273.848,8.844C272.788,10.124 272.655,12.244 273.407,13.745C274.069,14.938 275.305,15.644 276.674,15.644C277.602,15.644 278.926,15.114 279.545,14.011L277.911,12.95C277.778,13.26 277.381,13.613 277.028,13.701C276.586,13.878 275.879,13.701 275.481,13.304C274.819,12.598 274.731,11.36 275.084,10.521C275.35,9.947 275.967,9.462 276.586,9.462C277.161,9.462 277.645,9.859 277.911,10.345Z" style="fill:rgb(236,31,39);"/>
    </g>
    <g transform="matrix(4.16667,0,0,4.16667,-1039.27,-3.72086)">
        <path d="M258.832,11.714C258.92,9.683 259.715,8.534 261.084,7.916C262.056,7.475 263.514,7.562 264.573,8.446C264.838,8.667 265.104,8.932 265.28,9.241C266.163,10.742 266.119,12.509 265.456,13.79C264.794,14.982 263.602,15.644 262.232,15.644C261.217,15.6 259.892,14.893 259.316,13.745C259.096,13.172 258.832,12.376 258.832,11.714L260.73,11.626C260.73,12.067 260.863,12.553 261.04,12.906C261.35,13.436 261.879,13.834 262.497,13.745C263.071,13.745 263.602,13.26 263.822,12.774C264.176,11.847 264.087,10.875 263.646,10.212C263.337,9.77 263.027,9.639 262.63,9.594C262.1,9.506 261.657,9.594 261.26,10.036C260.907,10.477 260.775,11.052 260.73,11.626L258.832,11.714Z" style="fill:rgb(236,31,39);"/>
    </g>
    <g transform="matrix(4.16667,0,0,4.16667,-1039.27,-3.72086)">
        <path d="M251.942,10.301L251.942,15.468L255.917,15.468C256.933,15.468 257.816,14.938 258.169,14.142C258.479,13.436 258.346,12.553 257.771,11.978C257.463,11.67 257.286,11.581 257.065,11.537C257.286,11.405 257.551,11.14 257.683,10.963C258.081,10.389 258.081,9.506 257.64,8.799C257.198,8.093 256.446,7.783 255.52,7.783L251.942,7.783L251.942,10.301L253.841,10.301L253.841,9.417L255.255,9.417C255.476,9.417 255.696,9.462 255.873,9.726C256.005,9.903 256.049,10.257 255.917,10.477C255.829,10.698 255.563,10.831 255.387,10.831L254.106,10.831L254.106,12.376L255.476,12.376C255.652,12.376 255.917,12.421 256.094,12.685C256.314,12.95 256.271,13.304 256.138,13.524C255.961,13.834 255.696,13.878 255.387,13.878L253.841,13.878L253.841,12.376L254.106,12.376L254.106,10.831L253.841,10.831L253.841,10.301L251.942,10.301Z" style="fill:rgb(236,31,39);"/>
    </g>
    <g transform="matrix(4.16667,0,0,4.16667,-1039.27,-3.72086)">
        <path d="M272.213,8.711C271.86,8.401 271.463,8.137 271.022,7.96C269.432,7.298 268.15,7.606 267.312,8.401C266.604,8.976 266.428,9.947 266.693,10.786C266.958,11.405 267.443,11.934 268.15,12.155C268.945,12.421 269.343,12.465 269.829,12.598C270.271,12.641 270.581,13.083 270.358,13.524C270.271,13.745 269.961,13.967 269.652,13.967C268.857,14.011 268.063,13.436 267.488,12.995L266.251,14.275C266.87,14.893 267.488,15.247 268.239,15.468C269.255,15.777 270.844,15.733 271.684,14.85C272.346,14.231 272.522,13.348 272.301,12.465C271.905,11.183 270.491,10.919 270.05,10.831C269.211,10.654 268.725,10.61 268.548,10.124C268.504,9.903 268.548,9.639 268.769,9.506C269.52,9.019 270.448,9.506 271.065,9.947L272.213,8.711Z" style="fill:rgb(236,31,39);"/>
    </g>
    <g transform="matrix(4.16667,0,0,4.16667,-1039.27,-3.72086)">
        <path d="M273.76,31.632C273.76,34.061 271.772,36.093 269.299,36.093C266.825,36.093 264.838,34.061 264.838,31.632C264.838,29.159 266.825,27.127 269.299,27.127C271.772,27.127 273.76,29.159 273.76,31.632L273.229,31.632C273.229,29.424 271.463,27.657 269.299,27.657C267.091,27.657 265.324,29.424 265.324,31.632C265.324,33.796 267.091,35.562 269.299,35.562C271.463,35.562 273.229,33.796 273.229,31.632L273.76,31.632Z" style="fill:rgb(34,30,31);"/>
    </g>
    <g transform="matrix(4.16667,0,0,4.16667,-1039.27,-3.72086)">
        <path d="M271.418,30.131L271.418,30.749L267.665,30.749L267.665,32.516L267.179,32.516L267.179,30.131L267.223,29.644C267.179,29.733 267.135,29.777 267.091,29.821C266.384,30.616 266.251,31.896 266.693,32.869C266.781,33.001 266.958,33.266 267.002,33.354C267.091,33.442 267.179,33.531 267.223,33.619L267.179,33.31L267.179,32.516L270.932,32.516L270.932,33.001L267.665,33.001L267.665,34.547C266.693,34.016 266.119,33.045 265.942,32.029C265.81,30.66 266.473,29.336 267.665,28.673L267.665,30.263L270.932,30.263L270.932,28.673C271.905,29.247 272.522,30.263 272.655,31.367C272.7,32.692 272.125,33.885 270.932,34.547L270.932,30.749L271.418,30.749L271.418,33.31L271.374,33.575C271.374,33.531 271.506,33.442 271.551,33.354C271.639,33.266 271.817,33.001 271.86,32.869C272.346,31.896 272.213,30.616 271.506,29.821C271.463,29.733 271.374,29.733 271.374,29.644L271.418,30.131Z" style="fill:rgb(34,30,31);"/>
    </g>
    <g transform="matrix(4.16667,0,0,4.16667,-1039.27,-3.72086)">
        <path d="M254.725,22.137C255.033,22.225 255.652,22.313 255.873,22.622C256.005,22.755 256.005,22.932 256.005,23.02C256.005,23.639 255.343,23.815 255.21,23.859C254.989,23.903 254.769,23.903 254.725,23.903C253.443,23.903 252.914,23.329 252.604,22.888L251.545,23.639C251.633,23.77 251.766,23.947 251.898,24.08C252.825,25.052 254.106,25.052 254.504,25.052C254.813,25.052 255.917,25.052 256.712,24.345C257.153,23.991 257.374,23.506 257.374,22.888C257.374,22.269 257.153,21.96 256.976,21.739C256.535,21.254 255.829,21.032 255.166,20.9L254.504,20.767C253.886,20.635 253.488,20.547 253.312,20.237C253.268,20.149 253.268,20.06 253.268,19.929C253.268,19.84 253.268,19.752 253.312,19.663C253.62,19.134 254.46,19.134 254.504,19.134C255.563,19.134 256.049,19.796 256.271,20.149L257.286,19.354C256.358,18.073 255.166,17.985 254.592,17.985C253.223,17.985 252.472,18.603 252.163,19.09C251.942,19.487 251.942,19.929 251.942,20.105C251.942,21.077 252.561,21.475 252.87,21.651C253.179,21.828 253.576,21.872 253.886,21.96L254.725,22.137Z" style="fill:rgb(7,86,101);"/>
    </g>
    <g transform="matrix(4.16667,0,0,4.16667,-1039.27,-3.72086)">
        <path d="M259.583,21.606C259.583,21.43 259.715,20.811 260.333,20.591C260.422,20.547 260.599,20.503 260.863,20.503C261.525,20.503 261.79,20.9 261.923,21.165C262.012,21.342 262.012,21.518 262.012,21.562L259.583,21.606ZM263.425,22.534C263.381,21.475 263.16,20.855 262.895,20.503C262.63,20.105 262.012,19.487 260.819,19.487C259.316,19.487 258.655,20.459 258.435,20.988C258.258,21.386 258.213,21.783 258.213,22.225C258.213,23.064 258.435,23.77 259.009,24.345C259.715,25.008 260.555,25.052 260.907,25.052C261.967,25.052 262.674,24.521 262.983,24.257C263.204,24.036 263.381,23.815 263.469,23.726L262.365,23.108C262.32,23.196 262.232,23.285 262.188,23.329C262.056,23.506 261.657,23.815 260.996,23.815C260.377,23.815 260.023,23.55 259.847,23.329C259.583,23.02 259.538,22.667 259.538,22.534L263.425,22.534Z" style="fill:rgb(7,86,101);"/>
    </g>
    <g transform="matrix(4.16667,0,0,4.16667,-1039.27,-3.72086)">
        <path d="M265.81,19.619L264.573,19.619L264.573,24.875L265.81,24.875L265.81,22.622C265.81,22.357 265.81,22.093 265.898,21.783C266.207,20.811 267.179,20.811 267.443,20.811L267.443,19.531L267.355,19.531C267.223,19.531 266.517,19.531 266.119,19.973C265.986,20.06 265.898,20.237 265.81,20.37L265.81,19.619Z" style="fill:rgb(7,86,101);"/>
    </g>
    <g transform="matrix(4.16667,0,0,4.16667,-1039.27,-3.72086)">
        <path d="M272.7,19.619L271.374,19.619L270.314,23.241L269.211,19.619L267.93,19.619L269.607,24.875L270.977,24.875L272.7,19.619Z" style="fill:rgb(7,86,101);"/>
    </g>
    <g transform="matrix(4.16667,0,0,4.16667,-1039.27,-3.72086)">
        <path d="M273.67,24.875L274.907,24.875L274.907,19.619L273.67,19.619L273.67,24.875ZM273.67,18.824L274.907,18.824L274.907,17.544L273.67,17.544L273.67,18.824Z" style="fill:rgb(7,86,101);"/>
    </g>
    <g transform="matrix(4.16667,0,0,4.16667,-1039.27,-3.72086)">
        <path d="M279.899,22.844C279.809,23.064 279.545,23.859 278.618,23.859C277.956,23.859 277.557,23.418 277.381,22.799C277.336,22.711 277.292,22.49 277.292,22.225C277.292,22.049 277.292,21.475 277.69,21.032C277.956,20.724 278.219,20.591 278.618,20.591C279.104,20.591 279.325,20.811 279.5,20.944C279.545,21.032 279.721,21.209 279.809,21.475L280.915,20.988C280.561,20.149 279.942,19.796 279.633,19.663C279.325,19.531 279.014,19.487 278.661,19.487C277.469,19.487 276.807,20.149 276.586,20.503C276.188,20.988 276.012,21.606 276.012,22.269C276.012,22.711 276.1,24.168 277.514,24.786C277.999,25.008 278.397,25.052 278.618,25.052C279.413,25.052 280.163,24.698 280.649,24.036C280.782,23.859 280.915,23.639 280.958,23.418L279.899,22.844Z" style="fill:rgb(7,86,101);"/>
    </g>
    <g transform="matrix(4.16667,0,0,4.16667,-1039.27,-3.72086)">
        <path d="M282.901,21.606C282.946,21.43 283.079,20.811 283.653,20.591C283.741,20.547 283.917,20.503 284.182,20.503C284.844,20.503 285.153,20.9 285.243,21.165C285.331,21.342 285.331,21.518 285.375,21.562L282.901,21.606ZM286.745,22.534C286.7,21.475 286.479,20.855 286.213,20.503C285.948,20.105 285.331,19.487 284.182,19.487C282.637,19.487 281.973,20.459 281.752,20.988C281.577,21.386 281.532,21.783 281.532,22.225C281.532,23.064 281.752,23.77 282.327,24.345C283.079,25.008 283.874,25.052 284.227,25.052C285.286,25.052 285.993,24.521 286.301,24.257C286.567,24.036 286.7,23.815 286.788,23.726L285.727,23.108C285.639,23.196 285.596,23.285 285.551,23.329C285.375,23.506 284.977,23.815 284.358,23.815C283.696,23.815 283.387,23.55 283.209,23.329C282.946,23.02 282.858,22.667 282.858,22.534L286.745,22.534Z" style="fill:rgb(7,86,101);"/>
    </g>
    <g transform="matrix(4.16667,0,0,4.16667,-1039.27,-3.72086)">
        <path d="M249.425,27.127L269.299,39.405L289.129,27.127L289.129,40.641L249.425,40.641L249.425,27.127Z" style="fill:rgb(65,155,214);"/>
    </g>
    <g transform="matrix(4.16667,0,0,4.21438,-1039.27,-3.94892)">
        <rect x="249.425" y="0.937" width="39.704" height="3.843" style="fill:rgb(65,155,214);"/>
    </g>
</svg>
