<svg xmlns="http://www.w3.org/2000/svg" viewBox="0 0 44.93 32.4"><defs><style>.cls-1{fill:#fff;}</style></defs><title>diagnostyka-ikona</title><g id="Warstwa_2" data-name="Warstwa 2"><g id="Warstwa_1-2" data-name="Warstwa 1"><g id="Layer_93" data-name="Layer 93"><path class="cls-1" d="M39.92,0H5V23H39.92ZM36.38,19.47H8.56V3.54H36.38Z"/><polygon class="cls-1" points="27.27 30.89 17.75 30.89 0 30.89 0 32.4 44.93 32.4 44.93 30.89 27.27 30.89"/><path class="cls-1" d="M39.91,24.08H5L.27,30.43h44.4Zm-5,1.17h1.92v1H34.89ZM38,26.77v1H36.1v-1Zm-2.38,0v1H33.7v-1Zm-3.35-1.53h1.92v1H32.27ZM33,26.77v1H31.08v-1Zm-3.41-1.53h1.92v1H29.59Zm.73,1.53v1H28.4v-1Zm-3.47-1.53h1.92v1H26.84Zm-2.68,0h1.92v1H24.16Zm.73,1.53v1H23v-1Zm-3.35-1.53h1.92v1H21.54Zm.73,1.53v1H20.35v-1Zm-3.41-1.53h1.92v1H18.85Zm.73,1.53v1H17.66v-1Zm-3.47-1.53H18v1H16.11Zm.73,1.53v1H14.92v-1Zm-3.41-1.53h1.92v1H13.43Zm.73,1.53v1H12.24v-1Zm-3.35-1.53h1.92v1H10.81Zm.73,1.53v1H9.62v-1ZM8.13,25.24H10v1H8.13ZM6.94,26.77H8.85v1H6.94Zm.37,2.41H5.39v-1H7.31Zm2.45,0H7.84v-1H9.76Zm2.68,0H10.52v-1h1.92Zm2.62,0H13.15v-1h1.92v1Zm2.68,0H15.83v-1h1.92Zm7.88,0H18.57v-1h7.06Zm0-2.41h1.92v1H25.65Zm2.82,2.41H26.56v-1h1.92Zm2.75,0H29.3v-1h1.92Zm2.68,0H32v-1H33.9Zm2.63,0H34.61v-1h1.92Zm2.42,0H37v-1h1.92Z"/></g></g></g></svg>