<svg xmlns="http://www.w3.org/2000/svg" viewBox="0 0 40 35.73"><defs><style>.cls-1{fill:#fff;}</style></defs><title>elektronika-ikona</title><g id="Warstwa_2" data-name="Warstwa 2"><g id="Warstwa_1-2" data-name="Warstwa 1"><path class="cls-1" d="M24.21,8.84l2.18-7.1a2.05,2.05,0,0,1,2-1.74h2.32c.95,0,1,.65.28,1.74L28,6.38h1.88c.58,0,.79.58.37,1.37l-6.45,8.56,2.1-6.8H24.56C24.21,9.49,24.07,9.35,24.21,8.84ZM40,22.17V34.71a1,1,0,0,1-.95,1h-5a1,1,0,0,1-.95-1v-3H6.82v3a1,1,0,0,1-.95,1H.95a1,1,0,0,1-.95-1V22.18a7.23,7.23,0,0,1,.72-3.34L6.88,6A5.12,5.12,0,0,1,11.15,3.2l13.26.07L23.11,7.4h-10c-1.81,0-2.54.37-3.41,2.1L5.49,18.41h29L30.5,10l1.09-1.53A2.55,2.55,0,0,0,32,6.29a2.27,2.27,0,0,0-1.37-1.23L31.24,4a5.68,5.68,0,0,1,1.74,2l6.23,12.89A6.63,6.63,0,0,1,40,22.17ZM9.5,24.86a3.09,3.09,0,0,0-3.11-3.11,3,3,0,0,0-3,3.11,3.07,3.07,0,0,0,3,3.11A3.13,3.13,0,0,0,9.5,24.86Zm27,0a3,3,0,0,0-3-3.11,3.11,3.11,0,1,0,3,3.11Z"/></g></g></svg>