<svg xmlns="http://www.w3.org/2000/svg" viewBox="0 0 52 41.27"><defs><style>.cls-1{fill:#fff;}</style></defs><title>klimatyzacja-ikona</title><g id="Warstwa_2" data-name="Warstwa 2"><g id="Warstwa_1-2" data-name="Warstwa 1"><path class="cls-1" d="M51.53,10.58a36.08,36.08,0,0,0-51.07,0,1.59,1.59,0,0,0-.24,1.94L12.53,33.23A1.59,1.59,0,0,0,13.9,34h1.53c.2.74.46,1.46.72,2.15s.48,1.28.64,1.89A6.39,6.39,0,0,1,17,39.68a1.59,1.59,0,0,0,3.18,0,9.51,9.51,0,0,0-.34-2.44c-.2-.76-.47-1.48-.73-2.19-.13-.36-.26-.7-.38-1h4.89c.2.74.46,1.46.72,2.15s.48,1.28.64,1.89a6.39,6.39,0,0,1,.23,1.63,1.59,1.59,0,1,0,3.18,0,9.51,9.51,0,0,0-.34-2.44c-.2-.76-.47-1.48-.73-2.19-.13-.36-.26-.7-.38-1h4.89c.2.74.46,1.46.72,2.15s.48,1.28.64,1.89a6.39,6.39,0,0,1,.23,1.63,1.59,1.59,0,0,0,3.18,0,9.51,9.51,0,0,0-.34-2.44c-.2-.76-.47-1.48-.73-2.19-.13-.36-.26-.7-.38-1H38.1a1.59,1.59,0,0,0,1.37-.78L51.78,12.52A1.59,1.59,0,0,0,51.53,10.58ZM34.76,30.82a7.25,7.25,0,0,1,.18-.93c.16-.6.39-1.23.64-1.89s.53-1.43.73-2.19a9.06,9.06,0,0,0,0-4.89c-.1-.39-.22-.77-.35-1.14h1.32a.68.68,0,0,0,.48-1.16l-2.92-2.92a.68.68,0,0,0-1,0L31,18.64a.68.68,0,0,0,.48,1.16h1.14l0,.06c.25.66.48,1.28.64,1.89a5.89,5.89,0,0,1,0,3.27c-.16.6-.39,1.23-.64,1.89s-.53,1.43-.73,2.19a10.05,10.05,0,0,0-.31,1.74h-5a7.26,7.26,0,0,1,.18-.93c.16-.6.39-1.23.64-1.89s.53-1.43.73-2.19a9.06,9.06,0,0,0,0-4.89c-.1-.39-.22-.77-.35-1.14h1.18a.68.68,0,0,0,.48-1.16l-2.92-2.92a.68.68,0,0,0-1,0L22.6,18.64a.68.68,0,0,0,.48,1.16h1.27l0,.06c.25.66.48,1.28.64,1.89A5.89,5.89,0,0,1,25,25c-.16.6-.39,1.23-.64,1.89s-.53,1.43-.73,2.19a10.05,10.05,0,0,0-.31,1.74h-5a7.27,7.27,0,0,1,.18-.93c.16-.6.39-1.23.64-1.89s.53-1.43.73-2.19a9.06,9.06,0,0,0,0-4.89c-.1-.39-.22-.77-.35-1.14h1A.68.68,0,0,0,21,18.64l-2.92-2.92a.68.68,0,0,0-1,0l-2.92,2.92a.68.68,0,0,0,.48,1.16h1.41l0,.06c.25.66.48,1.28.64,1.89a5.89,5.89,0,0,1,0,3.27c-.16.6-.39,1.23-.64,1.89s-.53,1.43-.73,2.19a10.05,10.05,0,0,0-.31,1.74h-.3L3.6,12A32.93,32.93,0,0,1,48.4,12L37.19,30.82Z"/></g></g></svg>