<svg xmlns="http://www.w3.org/2000/svg" viewBox="0 0 30.84 51.08"><defs><style>.cls-1{fill:#fff;}</style></defs><title>skrzynie-ikona</title><g id="Warstwa_2" data-name="Warstwa 2"><g id="Warstwa_1-2" data-name="Warstwa 1"><path class="cls-1" d="M28.52,0H20.4a2.32,2.32,0,0,0-2.32,2.32V3A2.32,2.32,0,0,0,20.4,5.34H25.5V22.75H20.4a2.32,2.32,0,0,0-2.32,2.32V35.52H16V31.34A2.32,2.32,0,0,0,13.66,29H13a2.32,2.32,0,0,0-2.32,2.32V44.81A2.32,2.32,0,0,0,13,47.13h.7A2.32,2.32,0,0,0,16,44.81V40.86h5.11a2.32,2.32,0,0,0,2.32-2.32V28.09h5.11a2.32,2.32,0,0,0,2.32-2.32V2.32A2.32,2.32,0,0,0,28.52,0Z"/><path class="cls-1" d="M1.55,4h.82a2.22,2.22,0,0,0,1.56-.51A1.87,1.87,0,0,0,4.48,2,1.72,1.72,0,0,0,3.93.63,2.3,2.3,0,0,0,2.36.15H0V5.35H1.55Zm0-2.62h.74a.75.75,0,0,1,.54.18A.69.69,0,0,1,3,2a.72.72,0,0,1-.19.53.74.74,0,0,1-.54.19H1.55Z"/><path class="cls-1" d="M1.55,15.79h.82l.69,1.4H4.81l-1.06-1.7a1.68,1.68,0,0,0,.65-.66,2.06,2.06,0,0,0,.23-1,1.69,1.69,0,0,0-.58-1.37A2.46,2.46,0,0,0,2.43,12H0v5.21H1.55Zm0-2.62h.88a.75.75,0,0,1,.54.18.69.69,0,0,1,.19.52.72.72,0,0,1-.19.53.74.74,0,0,1-.54.19H1.55Z"/><polygon class="cls-1" points="1.42 26.14 3.63 29.04 4.94 29.04 4.94 23.83 3.53 23.83 3.53 26.73 1.32 23.83 0 23.83 0 29.04 1.42 29.04 1.42 26.14"/><path class="cls-1" d="M3.75,36a3.19,3.19,0,0,0-1.47-.32H0v5.21H2.23a3.3,3.3,0,0,0,1.49-.32,2.38,2.38,0,0,0,1-.92,2.6,2.6,0,0,0,.36-1.37,2.63,2.63,0,0,0-.35-1.36A2.36,2.36,0,0,0,3.75,36Zm-.57,3.29a1.07,1.07,0,0,1-.85.38H1.55V36.89h.71a1.17,1.17,0,0,1,.91.39,1.45,1.45,0,0,1,.35,1A1.48,1.48,0,0,1,3.18,39.29Z"/><polygon class="cls-1" points="12.73 26.7 13.89 26.7 13.89 24.84 15.75 24.84 15.75 23.68 13.89 23.68 13.89 21.82 12.73 21.82 12.73 23.68 10.88 23.68 10.88 24.84 12.73 24.84 12.73 26.7"/><rect class="cls-1" x="10.88" y="49.92" width="4.88" height="1.16"/></g></g></svg>