<svg xmlns="http://www.w3.org/2000/svg" viewBox="0 0 37.51 42"><defs><style>.cls-1{fill:#fff;}</style></defs><title>uklad-ikona</title><g id="Warstwa_2" data-name="Warstwa 2"><g id="Warstwa_1-2" data-name="Warstwa 1"><path class="cls-1" d="M28.43,10.25a.4.4,0,0,0,0,.09,4.65,4.65,0,0,0,8.79,0s0-.06,0-.09a4.56,4.56,0,0,0,.22-1.43V4.65a4.68,4.68,0,0,0-.2-1.32.12.12,0,0,0,0,0,4.65,4.65,0,0,0-8.88,0s0,0,0,.06a4.66,4.66,0,0,0-.19,1.31V4.8H21.3a3.2,3.2,0,0,0-5.1,0H9.29V4.64a4.62,4.62,0,0,0-.19-1.31s0,0,0-.06a4.65,4.65,0,0,0-8.88,0l0,0A4.67,4.67,0,0,0,0,4.65V8.83a4.81,4.81,0,0,0,.22,1.43.4.4,0,0,0,0,.09,4.65,4.65,0,0,0,8.79,0,.4.4,0,0,0,0-.09A4.56,4.56,0,0,0,9.3,8.83V8.68h6.91a3,3,0,0,0,.61.61V32.71a3,3,0,0,0-.61.61H9.3v-.15a4.62,4.62,0,0,0-.19-1.31s0,0,0-.06a4.65,4.65,0,0,0-8.89,0l0,0A4.67,4.67,0,0,0,0,33.17v4.18a4.81,4.81,0,0,0,.22,1.43.4.4,0,0,0,0,.09,4.64,4.64,0,0,0,8.79,0s0-.06,0-.09a4.56,4.56,0,0,0,.22-1.43V37.2H16.2a3.21,3.21,0,0,0,5.1,0h6.91v.15a4.81,4.81,0,0,0,.22,1.43.4.4,0,0,0,0,.09,4.65,4.65,0,0,0,8.79,0s0-.06,0-.09a4.56,4.56,0,0,0,.22-1.43V33.17a4.67,4.67,0,0,0-.19-1.32.12.12,0,0,0,0,0,4.65,4.65,0,0,0-8.89,0s0,0,0,.06a4.66,4.66,0,0,0-.19,1.31v.15H21.3a3,3,0,0,0-.61-.61V9.29a3,3,0,0,0,.61-.61h6.91v.15A4.81,4.81,0,0,0,28.43,10.25ZM20.66,35.38a1.93,1.93,0,0,1-1.76,1.79h-.14a1.94,1.94,0,0,1-1.9-1.7,1.87,1.87,0,0,1,0-.21,1.91,1.91,0,0,1,.35-1.11,1.91,1.91,0,0,1,1.56-.8,2,2,0,0,1,1.76,1.17,1.88,1.88,0,0,1,.15.74Zm0-28.52a2,2,0,0,1-1.21,1.67,1.89,1.89,0,0,1-.71.13A1.94,1.94,0,0,1,17,7.46a2,2,0,0,1-.14-.71,1.93,1.93,0,0,1,1.91-1.91,2,2,0,0,1,1.91,1.8v.23Z"/></g></g></svg>