<svg xmlns="http://www.w3.org/2000/svg" viewBox="0 0 50 50"><defs><style>.cls-1{fill:#fff;}</style></defs><title>wulkanizacja-ikona</title><g id="Warstwa_2" data-name="Warstwa 2"><g id="Warstwa_1-2" data-name="Warstwa 1"><path class="cls-1" d="M25,0A25,25,0,1,0,50,25,25,25,0,0,0,25,0Zm0,42.76A17.76,17.76,0,1,1,42.76,25,17.76,17.76,0,0,1,25,42.76Z"/><path class="cls-1" d="M25,9.54A15.46,15.46,0,1,0,40.46,25,15.47,15.47,0,0,0,25,9.54ZM38.48,24H31a6,6,0,0,0-1.07-2.57l5.29-5.29A13.46,13.46,0,0,1,38.48,24ZM26,11.52a13.46,13.46,0,0,1,7.86,3.26l-5.29,5.29A6,6,0,0,0,26,19V11.52Zm-1.94,0V19a6,6,0,0,0-2.57,1.07l-5.29-5.29A13.46,13.46,0,0,1,24,11.52Zm-9.24,4.63,5.3,5.29A6,6,0,0,0,19,24h-7.5A13.46,13.46,0,0,1,14.79,16.15ZM11.52,26H19a6,6,0,0,0,1.07,2.57l-5.31,5.31A13.46,13.46,0,0,1,11.52,26ZM24,38.48a13.46,13.46,0,0,1-7.88-3.27l5.31-5.31A6,6,0,0,0,24,31ZM24,29h0a4.09,4.09,0,0,1-1.17-.49h0a4.12,4.12,0,0,1-1.37-1.37h0A4.09,4.09,0,0,1,21,26h0A4,4,0,0,1,21,24h0a4.09,4.09,0,0,1,.49-1.17h0a4.12,4.12,0,0,1,1.37-1.37h0A4.09,4.09,0,0,1,24,21h0A4,4,0,0,1,26,21h0a4.09,4.09,0,0,1,1.17.49h0a4.11,4.11,0,0,1,1.37,1.37h0A4.09,4.09,0,0,1,29,24h0A4,4,0,0,1,29,26h0a4.08,4.08,0,0,1-.49,1.17h0a4.12,4.12,0,0,1-1.37,1.37h0A4.09,4.09,0,0,1,26,29h0A4,4,0,0,1,24,29ZM26,38.48V31a6,6,0,0,0,2.57-1.07l5.31,5.31A13.46,13.46,0,0,1,26,38.48Zm9.25-4.65-5.31-5.31A6,6,0,0,0,31,26h7.5A13.46,13.46,0,0,1,35.22,33.83Z"/></g></g></svg>